<svg width="22" height="24" viewBox="0 0 22 24" fill="none" xmlns="http://www.w3.org/2000/svg">
<path d="M21.4194 13.9808C21.099 10.5251 19.1564 8.35959 17.4426 6.44864C15.8557 4.67952 14.4852 3.15179 14.4852 0.898162C14.4852 0.717141 14.3628 0.551687 14.1687 0.468734C13.974 0.385283 13.7401 0.398951 13.5631 0.505482C10.9893 2.03086 8.84179 4.60177 8.09162 7.05479C7.57084 8.76259 7.50194 10.6825 7.49226 11.9505C5.11538 11.53 4.57695 8.58537 4.57127 8.55328C4.54449 8.40055 4.43182 8.26763 4.2679 8.19504C4.10228 8.1234 3.9076 8.1182 3.73969 8.18703C3.61505 8.23699 0.680336 9.47201 0.509583 14.4031C0.497617 14.5671 0.49707 14.7317 0.49707 14.8962C0.49707 19.6868 5.20357 23.5846 10.9881 23.5846C10.9961 23.5851 11.0046 23.586 11.0115 23.5846C11.0138 23.5846 11.016 23.5846 11.0188 23.5846C16.7892 23.5709 21.4792 19.6783 21.4792 14.8962C21.4792 14.6553 21.4194 13.9808 21.4194 13.9808ZM10.9881 22.6192C9.05975 22.6192 7.49112 21.2353 7.49112 19.5341C7.49112 19.4761 7.49057 19.4176 7.49565 19.346C7.51898 18.6286 7.68351 18.1388 7.86393 17.8131C8.20205 18.4146 8.80649 18.9675 9.78833 18.9675C10.1105 18.9675 10.3712 18.7516 10.3712 18.4848C10.3712 17.7975 10.3883 17.0047 10.5949 16.2891C10.7788 15.6546 11.2181 14.9796 11.7748 14.4385C12.0224 15.1408 12.5051 15.7093 12.9764 16.2641C13.6509 17.0579 14.3481 17.8786 14.4705 19.2781C14.4778 19.3611 14.4853 19.4445 14.4853 19.5341C14.4852 21.2352 12.9165 22.6192 10.9881 22.6192Z" fill="white"/>
</svg>
